<svg id="Layer_1" data-name="Layer 1" xmlns="http://www.w3.org/2000/svg" viewBox="0 0 667.32 667.32"><defs><style>.cls-1{fill:#ffd30b;}</style></defs><title>B</title><path class="cls-1" d="M158.55,99.65h194q141.72,0,141.72,124.72,0,40.95-16.06,66.46T430,324.53a98.91,98.91,0,0,1,57,38.1q21.73,29.3,21.73,76.54,0,68-36.22,98.26T362,567.66H158.55ZM351.3,283.58q13.21,0,20.15-10.39t6.93-26.77q0-19.51-7.87-28.35a24.85,24.85,0,0,0-19.21-8.82H280.75v74.33Zm6.92,174.48q16.38,0,25.52-11t9.13-29.92q0-18.9-9.13-29.92t-25.52-11H280.75v81.88Z"/></svg>