<svg id="Layer_1" data-name="Layer 1" xmlns="http://www.w3.org/2000/svg" viewBox="0 0 667.32 667.32"><defs><style>.cls-1{fill:#ffd30b;}</style></defs><title>Bold</title><path class="cls-1" d="M500.69,332.37a161.25,161.25,0,0,0-35.49-27.11,152.6,152.6,0,0,0,14.48-14c18.53-20.44,27.93-47.73,27.93-81.08,0-34.13-13.81-64.19-41-89.33-26.72-24.67-60.29-37.17-99.76-37.17H241.07l-80.89-2.59h-.72c-18.61,0-31.6,13.26-31.6,32.25,0,15.37,10.06,27.12,25.64,29.94l.84.15,19.7,2,.37,0c5.77.5,8.38,1.65,9.25,2.14a8.88,8.88,0,0,1,.1,1.44v369.2a6.88,6.88,0,0,1-.11,1.36c-.64.47-3.15,2-9.58,2.89l-17.53,1.21c-16.68.46-28.68,12.78-28.68,29.64,0,19.37,13,32.9,31.6,32.9h.4l73.45-2.6h147.8c44.5,0,82.4-15.08,112.62-44.81s45.73-65.62,45.73-106.39S526.42,358.1,500.69,332.37ZM284,158.34l.15-.15a4.79,4.79,0,0,1,1.27-.92h54.73c20.4,0,36.08,5.22,47.94,16,11.21,10.16,16.66,24.16,16.66,42.8a68,68,0,0,1-4.27,25,51.16,51.16,0,0,1-13,19c-12,11.24-27.53,16.7-47.37,16.7H284ZM413.42,487.61h0c-16,15.1-36.08,22.44-61.55,22.44H287.51a18.46,18.46,0,0,1-3.27-.24,19.6,19.6,0,0,1-.23-3.26V350.31h67.85c25.56,0,45.76,7.19,61.75,22,15.47,14.31,23,33,23,57.25S429,472.85,413.42,487.61Z"/></svg>