<svg id="Layer_1" data-name="Layer 1" xmlns="http://www.w3.org/2000/svg" viewBox="0 0 667.32 667.32"><defs><style>.cls-1{fill:#ffd30b;}</style></defs><title>Unsorted-List</title><path class="cls-1" d="M114.63,221a57,57,0,1,1,57-56.95A56.95,56.95,0,0,1,114.63,221ZM581.26,123H246.81a28.46,28.46,0,0,0-28.38,28.37V176.6A28.46,28.46,0,0,0,246.81,205H581.26a28.46,28.46,0,0,0,28.38-28.37V151.39A28.46,28.46,0,0,0,581.26,123ZM171.58,333.66a57,57,0,1,0-57,56.95A57,57,0,0,0,171.58,333.66Zm409.68-41H246.81a28.46,28.46,0,0,0-28.38,28.38v25.2a28.46,28.46,0,0,0,28.38,28.38H581.26a28.46,28.46,0,0,0,28.38-28.38v-25.2A28.46,28.46,0,0,0,581.26,292.68ZM171.58,503.32a57,57,0,1,0-57,56.95A57,57,0,0,0,171.58,503.32Zm409.68-41H246.81a28.46,28.46,0,0,0-28.38,28.38v25.2a28.46,28.46,0,0,0,28.38,28.38H581.26a28.46,28.46,0,0,0,28.38-28.38v-25.2A28.46,28.46,0,0,0,581.26,462.34Z"/></svg>