<svg id="Layer_1" data-name="Layer 1" xmlns="http://www.w3.org/2000/svg" viewBox="0 0 667.32 667.32"><defs><style>.cls-1{fill:#ffd30b;}</style></defs><title>Italics</title><path class="cls-1" d="M446,107q0,9.66-9,10.35l-11.73,2.08a43.91,43.91,0,0,0-22.08,16.75,41.81,41.81,0,0,0-5.83,13.43l-58.31,368.2h0a41.59,41.59,0,0,0,5.83,13.42A43.89,43.89,0,0,0,367,548L378.7,550q9,.68,9,10.35,0,8.29-10.35,8.29L309,565.9l-78,2.76q-9.66,0-9.66-9.67,0-7.59,7.59-9l20-2.07c4-.85,16.47-4,25.22-15.62a40.57,40.57,0,0,0,6.91-14.57l58.31-368.2A40.54,40.54,0,0,0,332.46,135c-8.75-11.59-21.24-14.78-25.22-15.62l-20-2.08q-7.59-1.38-7.59-9,0-9.66,9.66-9.67l78,2.77,68.35-2.77Q446,98.66,446,107Z"/></svg>