<svg xmlns="http://www.w3.org/2000/svg" viewBox="0 0 317.5 317.5">
  <path d="M48.368 32.567a12.923 12.923 0 0 0-12.952 12.951v226.464a12.923 12.923 0 0 0 12.952 12.95h48.105a12.923 12.923 0 0 0 12.951-12.95V45.518a12.923 12.923 0 0 0-12.951-12.95zm5.18 25.163h37.744a2.585 2.585 0 0 1 2.59 2.59v20.722a2.585 2.585 0 0 1-2.59 2.59H53.548a2.585 2.585 0 0 1-2.59-2.59V60.32a2.585 2.585 0 0 1 2.59-2.59zM134.697 32.567a12.923 12.923 0 0 0-12.95 12.951v226.464a12.923 12.923 0 0 0 12.95 12.95h48.106a12.923 12.923 0 0 0 12.95-12.95V45.518a12.923 12.923 0 0 0-12.95-12.95zm5.181 25.163h37.744a2.585 2.585 0 0 1 2.59 2.59v20.722a2.585 2.585 0 0 1-2.59 2.59h-37.744a2.585 2.585 0 0 1-2.59-2.59V60.32a2.585 2.585 0 0 1 2.59-2.59zM221.027 32.567a12.923 12.923 0 0 0-12.951 12.951v226.464a12.923 12.923 0 0 0 12.951 12.95h48.105a12.923 12.923 0 0 0 12.952-12.95V45.518a12.923 12.923 0 0 0-12.952-12.95zm5.18 25.163h37.745a2.585 2.585 0 0 1 2.59 2.59v20.722a2.585 2.585 0 0 1-2.59 2.59h-37.744a2.585 2.585 0 0 1-2.59-2.59V60.32a2.585 2.585 0 0 1 2.59-2.59z"/>
</svg>
