<svg xmlns="http://www.w3.org/2000/svg" viewBox="0 0 750 750">
  <g fill="#F6FFC4" fill-rule="evenodd" stroke="#171c00" stroke-linecap="round" stroke-linejoin="round" stroke-width="2.25">
    <path d="M33.939 297.57S13.746 269.71 62 239.941c48.255-29.77 119.279-7.443 123.157 13.118l2.865 15.19 10.805 87.387L83.5 360.712l-42.109-44.239-7.453-18.904z"/>
    <path d="M128.958 356.794l-6.824-73.609s21.376 10.035 42.05 2.837c20.379-8.857 21.28-30.795 21.28-30.795l14.136 98.27z"/>
    <path d="M29.745 283.665l23.365 196.5s53.375 46.758 115.55 44.22c62.175-2.54 126.732-17.854 184.647-54.1 57.916-36.246 110.943-63.473 157.779-63.336 46.835.137 71.082 7.863 71.082 7.863L707.92 403.36l-7.598-126.027c-4.403-33.547-81.958-51.471-168.486-51.118-112.436 6.093-264.138 99.38-264.138 99.38-22.09 12.363-101.275 41.397-177.518 13.95-50.248-18.097-56.34-46.779-60.435-55.88z"/>
    <path d="M29.745 283.665l23.365 196.5s53.375 46.758 115.55 44.22c62.175-2.54 126.732-17.854 184.647-54.1 57.916-36.246 110.943-63.473 157.779-63.336 46.835.137 71.082 7.863 71.082 7.863L707.92 403.36l-7.598-126.027c-4.403-33.547-81.958-51.471-168.486-51.118-112.436 6.093-264.138 99.38-264.138 99.38-22.09 12.363-101.275 41.397-177.518 13.95-50.248-18.097-56.34-46.779-60.435-55.88z"/>
    <path d="M643.206 350.04l-6.22-39.754s-21.32-11.326-40.206-4.592c-18.886 6.734-23.927 21.37-22.613 26.442 1.315 5.073 7.68 24.31 7.68 24.31s27.815 10.766 30.694 10.837c2.878.071 30.665-17.243 30.665-17.243z"/>
    <path d="M700.44 277.291l19.815 189.13s-14.524 34.201-57.315 46.826c-42.792 12.624-68.376-.967-68.376-.967L574.5 333.225s5.01 30.363 50.574 22.127c45.563-8.236 58.8-19.43 67.878-37.205 9.078-17.776 7.488-40.856 7.488-40.856z"/>
  </g>
  <g fill="#171C0A" aria-label="MangAdventure" font-family="BlackChancery" font-size="80" font-weight="400" letter-spacing="0" word-spacing="0">
    <path d="M128.496 392.354c3.137.554 5.365 2.144 6.736 4.82a22.018 22.018 0 0 1 1.643 4.12c.448 1.56.76 3.235.933 5.021.337 3.474.667 6.65.985 9.539.365 2.894.75 5.307 1.144 7.238a865.001 865.001 0 0 0 4.161-8.785c2.692-5.105 5.663-9.375 8.883-12.85 3.268-3.473 6.832-5.062 10.844-4.866 1.88.093 3.342.543 4.418 1.381a7.298 7.298 0 0 1 1.492 1.493c.392.53.715 1.12.97 1.77a9.094 9.094 0 0 0-.992-1.077 7.414 7.414 0 0 0-1.892-1.268 8.493 8.493 0 0 0-3.5-.916c-2.66-.123-4.86 1.106-6.66 3.743-1.797 2.636-2.908 5.573-3.247 8.849-.414 3.996.101 9.625 1.796 16.653 1.747 7.05 4.726 13.828 9.208 20.115a38.14 38.14 0 0 0 2.3 2.888c4.179 4.736 9.272 8.021 15.117 9.744-2.66.11-5.32.178-7.98.205-2.731.027-5.269-.243-7.59-.791-6.234-1.488-10.788-4.958-13.663-10.16-3.948-7.146-5.839-15.41-6.077-24.648.174-4.014.351-8.029.533-12.04-1.592 2.384-3.66 6.512-6.395 12.443-2.784 6.037-4.813 10.402-6.26 13.855-.82-1.949-1.624-4.648-2.393-8.097a244.67 244.67 0 0 1-.636-3.23 367.957 367.957 0 0 1-1.636-9.304c-.74-4.906-1.24-8.352-1.55-10.34-.753 4.056-2.758 9.873-6.16 17.254-3.409 7.37-7.615 13.733-12.658 19.106-5.035 5.364-10.15 7.498-15.078 6.425-3.07-.669-5.34-2.583-6.82-5.722-1.479-3.138-1.724-6.519-.783-10.13.883 1.776 2.204 3.383 3.973 4.813 1.806 1.488 3.906 2.495 6.296 3.012 5.233 1.132 10.105-.575 14.408-5.106 4.36-4.526 7.78-9.847 10.319-15.952 2.53-6.084 4.096-10.982 4.777-14.575.862-4.541.987-7.821.413-9.803-.576-1.991-2.414-3.256-5.536-3.85-5.656-1.075-10.48-.566-14.515 1.64-4.032 2.202-6.664 5.777-7.856 10.793-.883 3.713-.929 7.127-.11 10.244a253.683 253.683 0 0 0 3.448 7.572c-.144.604-.806 1.025-1.988 1.258-1.133.244-2.066.284-2.794.123-1.222-1.494-2.322-3.454-3.3-5.88-.932-2.418-.803-5.985.348-10.715 1.74-7.148 5.488-11.961 11.192-14.576 5.77-2.613 12.979-2.98 21.732-1.436z"/>
    <path d="M191.662 412.999c.685 8.78 1.347 17.565 1.987 26.354.097.612.46.892 1.09.832.472-.044 1.012-.24 1.616-.587a96.48 96.48 0 0 0 3.051-1.98c-.545 1.354-1.574 2.742-3.108 4.139-1.482 1.392-2.99 2.149-4.484 2.269-.852.068-2.009-.369-3.436-1.324-1.377-.96-2.083-2.33-2.152-4.091-.05-1.286-.101-2.571-.153-3.857-2.992 3.077-5.677 5.524-7.882 7.332-2.216 1.816-4.196 2.713-5.85 2.71-1.602-.002-3.036-.761-4.265-2.269a9.886 9.886 0 0 1-.484-.649c-1.28-1.942-1.8-4.509-1.627-7.703.23-4.262 1.24-7.878 2.923-10.849a18.589 18.589 0 0 1 3.173-4.136c3.631-3.56 8.068-5.403 13.59-5.739a208.62 208.62 0 0 0 6.011-.452zm-18.273 15.846c-.042 2.338.323 4.05 1.123 5.144.797 1.09 1.922 1.627 3.358 1.595 1.23-.027 2.536-.4 3.9-1.12 1.413-.772 2.807-1.794 4.167-3.066-.217-5.308-.444-10.614-.68-15.92-3.487.204-6.26 1.617-8.442 4.326-2.178 2.655-3.365 5.657-3.426 9.041zm54.938 4.565c.227 1.022.722 1.447 1.487 1.27 1.017-.234 2.248-1.329 3.64-3.286-.582 2.004-1.555 3.682-2.923 5.025-1.315 1.33-2.608 2.131-3.85 2.401-1.398.304-2.618.17-3.645-.396-.987-.624-1.627-1.731-1.935-3.32l-2.994-15.773c-.21-1.073-.495-1.89-.85-2.449-.365-.606-1.091-.8-2.18-.59-1.189.23-2.51 1.759-4.078 4.589-1.58 2.79-2.381 4.364-2.316 4.798.603 3.999 1.202 7.998 1.8 11.999-.112 1.028-.881 2.119-2.335 3.25-.515.394-1.04.73-1.576 1.007a8.627 8.627 0 0 1-2.86.911c-.939-8.087-1.892-16.17-2.86-24.252-.09-.756-.419-1.096-.984-1.025-.713.09-1.97.894-3.853 2.39 1.598-2.472 3.006-4.435 4.293-5.901.892-1.022 1.659-1.729 2.318-2.119.32-.188.615-.303.886-.342 1.286-.188 2.2.414 2.744 1.822.581 1.349 1.11 3.537 1.564 6.544l.395 2.61c1.458-3.17 2.977-6.112 4.572-8.825 1.634-2.77 3.51-4.377 5.724-4.846 1.706-.36 2.961-.035 3.775 1.002.812 1.034 1.486 2.714 2.004 5.033.155.697.287 1.398.395 2.106l.45 2.02c.3 1.346.597 2.791.889 4.334l1.207 5.433.711 3.205c.196.882.324 1.34.385 1.376zm36.841-1.895c1.775 5.37 1.494 10.53-1.045 15.469-1.944 3.847-4.65 6.64-8.076 8.337a17.63 17.63 0 0 1-3.036 1.165c-3.61 1.02-6.423.772-8.359-.689-1.886-1.479-3.175-3.677-3.903-6.586-.498-1.985-.622-4.062-.396-6.233.279-2.19 1.462-5.11 3.447-8.815-1.771.485-3.549.045-5.3-1.32-1.765-1.412-3.015-3.669-3.79-6.763-1.5-5.992-.596-11.33 2.455-15.994 1.322-1.995 2.747-3.685 4.293-5.075 2.097-1.885 4.414-3.221 6.987-4.022a432.75 432.75 0 0 0 5.99-1.988c3.572 10.84 7.15 21.678 10.733 32.514zm-10.888-10.079a443.467 443.467 0 0 1-5.42 9.103 385.43 385.43 0 0 1-2.328 3.754c-1.854 4.475-2.377 8.543-1.397 12.225.697 2.621 1.852 4.305 3.487 5.042 1.63.737 3.6.781 5.878.12.153-.044.303-.092.45-.143 2.291-.79 3.864-2.352 4.704-4.663.947-2.477.966-5.099.102-7.868l-5.476-17.57zm-13.916-2.461c.618 2.249 1.459 3.791 2.537 4.628 1.077.835 2.31 1.056 3.684.66.139-.04.278-.086.416-.136 1.034-.372 2.05-1.013 3.042-1.923 1.16-1.091 2.243-2.415 3.24-3.969l-4.729-15.188c-2.775.86-4.878 2.368-6.343 4.56-.37.553-.698 1.15-.986 1.79-1.44 3.127-1.755 6.322-.86 9.578zm103.159-4.431c-1.753.765-3.51 1.528-5.273 2.289-4.964 2.144-9.913 2.31-14.782.488a1260.83 1260.83 0 0 1-14.43-6.602c-3.528-1.303-7.25-2.165-11.177-2.596-3.86-.424-7.913-.431-12.178-.04a361.879 361.879 0 0 1-3.033 8.007c-1.317 3.277-3.066 6.764-5.274 10.423-2.194 3.709-4.314 5.896-6.259 6.554-.948.322-1.685.368-2.207.141-.457-.198-.83-.726-1.118-1.582-.23-.687 1.421-2.885 4.81-6.686 3.422-3.861 6.953-9.423 10.47-16.705-2.306.311-4.4.81-6.29 1.502-1.986.727-3.46 1.457-4.424 2.205-.934.687-2.086 1.723-3.479 3.114a13.784 13.784 0 0 1 3.78-4.282 21.743 21.743 0 0 1 5.371-2.865 30.987 30.987 0 0 1 5.631-1.5 98.389 98.389 0 0 0 4.863-21.371c.728-6.411.781-12.057.221-16.9 4.23 6.09 9.016 12.73 14.398 19.93 5.365 7.16 11.547 13.383 18.595 18.675 7.06 5.332 14.353 7.925 21.785 7.801zm-52.965-30.44a71.721 71.721 0 0 1-.432 4.899 74.293 74.293 0 0 1-.961 5.865 106.134 106.134 0 0 1-2.906 11.16c3.629-.5 7.092-.793 10.403-.866.282-.007.563-.011.842-.014 3.592-.103 6.793.213 9.613.96-1.846-1.555-4.376-4.431-7.56-8.631a146.616 146.616 0 0 1-9-13.374z"/>
    <path d="M346.812 390.576c.298.544.72.696 1.265.455.408-.181.827-.522 1.254-1.024.453-.564 1.16-1.477 2.115-2.733-.037 1.37-.504 2.93-1.404 4.682-.92 1.708-1.99 2.909-3.205 3.602-.728.32-1.908.243-3.538-.235-1.585-.499-2.725-1.53-3.422-3.096l-1.567-3.52c-1.568 3.806-2.975 6.962-4.216 9.473-1.194 2.49-2.51 4.043-3.937 4.658-1.565.674-3.353.405-5.355-.809-1.975-1.278-3.592-3.38-4.857-6.307-2.566-5.937-2.862-11.268-.937-15.975 1.925-4.712 5.464-8.19 10.646-10.465a54889.2 54889.2 0 0 0-1.976-4.433c-1.395-3.128-1.714-6.132-.964-9.009.73-2.92 2.548-5.023 5.461-6.314l5.991-2.66c-.299 3.153-1.579 5.336-3.835 6.545-2.275 1.164-3.266 2.07-2.974 2.72 5.16 11.48 10.312 22.96 15.455 34.445zm-22.445-2.649c.935 2.136 1.987 3.547 3.158 4.234 1.17.686 2.397.751 3.675.196 1.096-.476 2.125-1.287 3.084-2.433.987-1.21 1.874-2.636 2.661-4.281-2.158-4.846-4.317-9.691-6.477-14.536-3.383 1.484-5.573 3.891-6.582 7.232-1.028 3.297-.874 6.494.481 9.588z"/>
    <path d="M366.055 351.56c.722-.32 2.185.098 4.386 1.255 2.182 1.115 3.75 2.736 4.705 4.862.487 1.085.295 4.63-.571 10.635-.866 6.004-1.246 11.227-1.145 15.657-3.534-2.226-7.412-5.135-11.629-8.724-2.521-2.181-4.558-3.87-6.1-5.06-1.009-.778-1.808-1.345-2.397-1.7-1.51-.943-3.256-.972-5.24-.09-.316.14-1.042.75-2.18 1.829-1.113 1.015-1.898 1.857-2.354 2.528.258-1.832 1.088-4.257 2.486-7.273 1.424-3.08 2.674-4.86 3.756-5.343.37-.165.8-.236 1.287-.214 2.184.1 5.547 2.077 10.077 5.933 5.523 4.674 9.24 7.473 11.163 8.387.298-1.017.424-2.48.378-4.384-.02-1.97-.412-3.8-1.173-5.491-.761-1.692-1.837-2.88-3.228-3.564-1.365-.747-3.226-1.273-5.585-1.577.085-1.131.43-2.586 1.034-4.365.65-1.8 1.427-2.9 2.33-3.3zm24.321-9.454c1.769-.766 3.356-1.086 4.757-.962 1.444.104 3.589.69 6.408 1.767-3.227 7.649-6.356 15.3-9.458 22.973 1.527 1.044 3.03 1.502 4.513 1.374 1.508-.19 3.084-.643 4.729-1.355a10.745 10.745 0 0 0 4.122-3.096c1.149-1.372 2.127-2.719 2.933-4.042-.652 3.427-1.747 6.274-3.293 8.544-1.565 2.226-3.715 3.936-6.465 5.137-3.95 1.724-7.3 1.723-10.055-.027-2.434-1.546-4.296-3.525-5.58-5.944a15.94 15.94 0 0 1-.477-.976c-1.094-2.447-1.738-4.81-1.931-7.092-.205-2.414.096-4.735.905-6.963 1.574-4.33 4.538-7.452 8.892-9.338zm.441 22.541a2473.38 2473.38 0 0 1 2.748-6.497c1.287-3.519 1.663-5.908 1.11-7.173-.668-1.525-1.567-2.536-2.698-3.03-1.151-.539-2.36-.532-3.625.02-1.581.689-2.417 2.146-2.507 4.367-.11 2.179.389 4.506 1.489 6.984a23.748 23.748 0 0 0 1.532 2.913c.539.854 1.19 1.66 1.951 2.416z"/>
    <path d="M436.006 351.85c.366.98.881 1.345 1.546 1.095.886-.334 1.83-1.526 2.851-3.576-.274 2.027-.922 3.765-1.944 5.216-.979 1.435-1.992 2.354-3.05 2.759a5.55 5.55 0 0 1-1.053.292 4.065 4.065 0 0 1-2.264-.234c-.995-.48-1.786-1.471-2.37-2.979l-5.784-14.97c-.402-1.018-.832-1.769-1.29-2.254-.474-.528-1.238-.586-2.29-.17-1.142.453-2.18 2.224-3.087 5.31-.925 3.039-1.293 4.764-1.131 5.157a2467.52 2467.52 0 0 1 4.574 11.229c.153 1.016-.265 2.214-1.248 3.596-.957 1.32-2.07 2.247-3.349 2.782a2793.863 2793.863 0 0 0-9.412-22.507c-.296-.701-.717-.938-1.262-.71-.68.285-1.724 1.42-3.116 3.405.818-2.827 1.685-5.127 2.595-6.9.937-1.835 1.822-2.923 2.645-3.263 1.282-.53 2.369-.177 3.256 1.053.915 1.168 1.955 3.157 3.117 5.971l1.006 2.44c.659-3.403 1.524-6.601 2.6-9.592 1.103-3.053 2.776-5.018 5-5.88 1.714-.666 3.07-.546 4.059.35.637.578 1.247 1.432 1.829 2.562.32.62.631 1.325.935 2.113.256.666.489 1.341.699 2.025l.74 1.932c.493 1.289.996 2.675 1.508 4.16.535 1.407 1.205 3.174 1.97 5.205l1.154 3.072c.317.847.505 1.284.566 1.312zm6.277-30.041a379.255 379.255 0 0 1 5.861-1.95c-.182 1.51-.789 2.609-1.817 3.3a17.666 17.666 0 0 1-3.025 1.546 1303.314 1303.314 0 0 1 6.986 20.46c.33.993.87 1.36 1.623 1.104.62-.21 1.3-.765 2.045-1.662.777-.96 1.632-2.287 2.588-3.99-.513 2.806-1.354 5.28-2.518 7.422-1.18 2.098-2.606 3.442-4.311 4.04-1.312.46-2.414.248-3.314-.641-.871-.95-1.804-2.839-2.8-5.663a1507.88 1507.88 0 0 0-6.773-18.8c-1.378.494-2.754.996-4.126 1.502-.246-1.072.555-2.67 2.442-4.767 1.916-2.156 3.024-6.308 3.363-12.462a1418.44 1418.44 0 0 1 3.776 10.56zm15.355-5.238c1.608-.466 2.782-.174 3.505.858a14.77 14.77 0 0 1 1.738 3.296 942.33 942.33 0 0 1 4.094 14.777c.382 1.423.833 2.482 1.353 3.177.553.637 1.431.79 2.642.472 1.09-.287 2.222-1.454 3.45-3.503l.116-.193c1.26-2.213 1.763-4.006 1.445-5.4a792.911 792.911 0 0 0-2.828-11.948c-.35-1.432-.017-2.809 1.036-4.12 1.091-1.368 2.635-2.267 4.62-2.667a696.644 696.644 0 0 1 5.059 24.913c.169.16.36.316.574.467.258.143.633.166 1.126.071.628-.12 1.326-.494 2.106-1.117.82-.68 1.76-1.756 2.86-3.233-.77 1.81-1.966 3.882-3.542 6.256-1.538 2.317-3.09 3.653-4.747 4.01-1.22.263-2.164.089-2.845-.537-.646-.68-1.133-1.764-1.454-3.25-.22-1.023-.443-2.045-.669-3.067a90.636 90.636 0 0 1-2.464 4.06 48.45 48.45 0 0 1-2.022 2.907c-1.399 1.784-3.017 2.935-4.894 3.468-1.571.446-2.895-.002-3.993-1.36-1.053-1.37-1.911-3.172-2.562-5.406a1036.222 1036.222 0 0 0-4.756-15.847c-.267-.864-.56-1.472-.878-1.823-.318-.35-.79-.433-1.41-.242-.765.234-1.711.974-2.82 2.224.545-2.02 1.346-3.616 2.402-4.784 1.04-1.213 2.297-2.035 3.758-2.459zm38.009-7.801c1.483-.16 2.495.396 3.014 1.639.566 1.193 1.018 3.35 1.335 6.476.108 1.065.213 2.13.314 3.196a140.068 140.068 0 0 1 5.272-7.935c2.38-2.877 4.965-4.32 7.604-4.311.568.002 1.09.077 1.565.223.77.237 1.413.661 1.924 1.266.885.935 1.308 2.075 1.29 3.41-.02 1.63-1.076 3.375-3.037 5.34-.647.632-1.284 1.258-1.908 1.874-1.26 1.243-2.486 2.462-3.663 3.63.232-.48.458-1.27.679-2.367.269-1.148.395-2.147.37-3.004-.03-1.047-.264-1.9-.704-2.558-.388-.658-1.056-.977-1.991-.946-.986.034-2.187.918-3.537 2.665a71.012 71.012 0 0 0-3.633 5.199c.4 4.427.741 8.854 1.022 13.281a39.859 39.859 0 0 1-2.48 2.603 8.145 8.145 0 0 1-3.332 1.838 555.146 555.146 0 0 0-2.894-23.416c-.143-.989-.723-1.42-1.736-1.28-.455.064-.96.305-1.51.724-.557.372-1.151.97-1.776 1.793.527-1.67 1.662-3.647 3.465-5.859 1.807-2.216 3.294-3.368 4.347-3.482zm43.825.41c2.19.512 3.926 1.323 5.168 2.366 1.285 1.05 2.929 2.993 4.686 5.8a106.48 106.48 0 0 0-22.08 12.355c.672 1.694 1.59 2.884 2.797 3.6 1.265.678 2.705 1.2 4.35 1.6 1.643.399 3.273.427 4.94.081a50.078 50.078 0 0 0 4.786-1.15c-2.77 2.103-5.378 3.578-7.854 4.42-2.47.798-4.959.933-7.594.437-3.777-.712-6.233-2.317-7.554-5.186-1.312-2.851-1.936-5.828-1.688-8.959.436-5.5 2.265-9.825 6.082-12.746 3.787-2.9 8.55-3.88 13.96-2.617zm-12.597 18.804a106.898 106.898 0 0 1 5.891-3.884c3.132-2.147 4.934-3.757 5.224-5.133.344-1.632.155-3-.59-4.1-.734-1.143-1.878-1.88-3.398-2.173-1.903-.368-3.527.384-4.832 2.206-1.303 1.78-2.076 4.025-2.427 6.718a25.547 25.547 0 0 0-.218 3.286c.006 1.01.126 2.037.35 3.08z"/>
  </g>
</svg>

