<svg id="Layer_1" data-name="Layer 1" xmlns="http://www.w3.org/2000/svg" viewBox="0 0 667.32 667.32"><defs><style>.cls-1{fill:#ffd30b;}</style></defs><title>Strikethrough</title><path class="cls-1" d="M524.69,333.66a17,17,0,0,1-17,17H435.4a200.9,200.9,0,0,1,28,26.58q25.74,29.7,25.74,68,0,62-46.53,94.38T329.7,571.92q-66.33,0-108.9-15.84t-42.57-35V443.88q0-13.86,10.56-13.86,8.57,0,11.88,12.54,17.15,50.83,44.55,75.57t76.89,24.75q49.5,0,80.19-22.44t30.69-62q0-43.56-48.84-73.26Q362.37,372,336,359.4q-9.11-4.32-18.21-8.76H159.61a17,17,0,0,1,0-34h94.21Q244,310.53,235,304q-48.86-35.64-48.84-90.09t41.91-86.46q41.9-32,98.67-32t96.36,14.19q39.6,14.2,39.6,31.35V207.6q0,13.22-9.57,13.2t-14.19-13.2q-13.86-42.22-36.3-62.7t-67-20.46q-44.55,0-70.29,21.12T239.61,198q0,31.36,25.74,54.12t62.37,40.26q24.78,11.83,49.55,24.27H507.71A17,17,0,0,1,524.69,333.66Z"/></svg>