<svg id="Layer_1" data-name="Layer 1" xmlns="http://www.w3.org/2000/svg" viewBox="0 0 667.32 667.32"><defs><style>.cls-1{fill:#ffd30b;}</style></defs><title>Underlined</title><path class="cls-1" d="M529.11,573.25H138.2a11.34,11.34,0,0,1-11.31-11.31h0a11.34,11.34,0,0,1,11.31-11.31H529.11a11.35,11.35,0,0,1,11.32,11.31h0A11.35,11.35,0,0,1,529.11,573.25Zm-307.68-108q44.65,43.5,113.1,43.5t112.23-42.05q43.78-42,43.79-113.39V134.66q0-20.3,26.68-23.2l16.82-1.74q6.38-1.16,6.38-8.12t-8.12-7l-56.26,1.74-45.24-1.74q-8.7,0-8.7,7t7.54,8.12l9.86,1.74q23.19,4.07,23.2,23.2V353.9q0,52.78-32.77,83.52T344.1,468.16q-53.07,0-85.55-30.16t-32.48-84.1V134.66q0-19.14,23.2-23.2l9.86-1.74q7.53-.57,7.54-8.7,0-7-8.7-7l-57.42,2.32L135,94.06q-8.13,0-8.12,8.12,0,6.39,6.38,7.54l16.82,1.74q26.67,2.33,26.68,23.2V353.32Q176.77,421.77,221.43,465.26Z"/></svg>