<svg id="Layer_1" data-name="Layer 1" xmlns="http://www.w3.org/2000/svg" viewBox="0 0 667.32 667.32"><defs><style>.cls-1{fill:#ffd30b;}</style></defs><title>U</title><path class="cls-1" d="M506.37,97.37H444.2V346.08q0,51-27.71,71.81t-83.15,20.79q-54.79,0-82.51-20.79t-27.72-71.81V97.37H159.49V346.71q0,83.15,44.43,116.19T333.34,496q85,0,129.76-33.1t44.72-116.19V97.32A14.05,14.05,0,0,1,506.37,97.37ZM490.71,570H176.64a17,17,0,0,1-17-17h0a17,17,0,0,1,17-17H490.71a17,17,0,0,1,17,17h0A17,17,0,0,1,490.71,570Z"/></svg>